<svg id="Icon" xmlns="http://www.w3.org/2000/svg" width="38" height="38" viewBox="0 0 38 38">
  <path id="_39" data-name="39" d="M26.867,0H11.133A11.133,11.133,0,0,0,0,11.133V26.867A11.133,11.133,0,0,0,11.133,38H26.867A11.133,11.133,0,0,0,38,26.867V11.133A11.133,11.133,0,0,0,26.867,0Zm2.895,19a1.855,1.855,0,0,1-1.855,1.855H20.855v7.051a1.855,1.855,0,0,1-3.711,0V20.855H10.094a1.855,1.855,0,0,1,0-3.711h7.051V10.094a1.855,1.855,0,0,1,3.711,0v7.051h7.051A1.855,1.855,0,0,1,29.762,19Z" fill="#fff"/>
</svg>
