<svg id="Icon" xmlns="http://www.w3.org/2000/svg" width="23.215" height="23.215" viewBox="0 0 23.215 23.215">
  <path id="_39" data-name="39" d="M16.414,0H6.8A6.8,6.8,0,0,0,0,6.8v9.612a6.8,6.8,0,0,0,6.8,6.8h9.612a6.8,6.8,0,0,0,6.8-6.8V6.8A6.8,6.8,0,0,0,16.414,0Zm1.768,11.608a1.133,1.133,0,0,1-1.134,1.134H12.741v4.307a1.134,1.134,0,1,1-2.267,0V12.741H6.167a1.134,1.134,0,1,1,0-2.267h4.307V6.167a1.134,1.134,0,0,1,2.267,0v4.307h4.307A1.133,1.133,0,0,1,18.182,11.608Z" transform="translate(0)" fill="#a52d01"/>
</svg>
