<svg xmlns="http://www.w3.org/2000/svg" width="25.313" height="25.313" viewBox="0 0 25.313 25.313">
  <path id="camera" d="M2,6.52V4.712A2.715,2.715,0,0,1,4.712,2H6.52a.9.9,0,1,1,0,1.808H4.712a.906.906,0,0,0-.9.9V6.52A.9.9,0,1,1,2,6.52ZM6.52,25.505H4.712a.906.906,0,0,1-.9-.9V22.793a.9.9,0,0,0-1.808,0V24.6a2.715,2.715,0,0,0,2.712,2.712H6.52a.9.9,0,1,0,0-1.808ZM24.6,2H22.793a.9.9,0,0,0,0,1.808H24.6a.906.906,0,0,1,.9.9V6.52a.9.9,0,1,0,1.808,0V4.712A2.715,2.715,0,0,0,24.6,2Zm1.808,19.889a.9.9,0,0,0-.9.9V24.6a.906.906,0,0,1-.9.9H22.793a.9.9,0,0,0,0,1.808H24.6A2.715,2.715,0,0,0,27.313,24.6V22.793A.9.9,0,0,0,26.409,21.889ZM14.657,13.753a1.808,1.808,0,1,0,1.808,1.808A1.81,1.81,0,0,0,14.657,13.753Zm6.328,8.136H8.328a2.715,2.715,0,0,1-2.712-2.712V11.945A2.715,2.715,0,0,1,8.328,9.232H9.564a.9.9,0,0,0,.685-.316l.466-.545a2.708,2.708,0,0,1,2.06-.948h3.8a2.722,2.722,0,0,1,1.989.868l.6.652a.908.908,0,0,0,.662.288h1.15A2.715,2.715,0,0,1,23.7,11.944v7.232a2.715,2.715,0,0,1-2.712,2.712Zm-2.712-6.328a3.616,3.616,0,1,0-3.616,3.616A3.62,3.62,0,0,0,18.273,15.561Z" transform="translate(-2 -2)" fill="#1d1d25"/>
</svg>
