<svg xmlns="http://www.w3.org/2000/svg" width="22.344" height="22.208" viewBox="0 0 22.344 22.208">
  <path id="homepage" d="M27.344,12.7V25.055a2.485,2.485,0,0,1-2.483,2.483H20.724a1.655,1.655,0,0,1-1.655-1.655V21.331a.828.828,0,0,0-.828-.828H14.1a.828.828,0,0,0-.828.828v4.552a1.655,1.655,0,0,1-1.655,1.655H7.483A2.485,2.485,0,0,1,5,25.055V12.7a1.663,1.663,0,0,1,.8-1.42l9.517-5.71a1.655,1.655,0,0,1,1.7,0l9.517,5.71A1.663,1.663,0,0,1,27.344,12.7Z" transform="translate(-5 -5.33)" fill="#e9ebf1"/>
</svg>
