<svg xmlns="http://www.w3.org/2000/svg" width="15" height="15" viewBox="0 0 15 15">
  <g id="global-2" transform="translate(-0.032 -0.031)">
    <path id="Exclusion_3" data-name="Exclusion 3" d="M8.146,15h0a11.733,11.733,0,0,0,.766-.977,11.478,11.478,0,0,0,.646-1.034,11.219,11.219,0,0,0,.928-2.2,15.732,15.732,0,0,1,1.62.406,14.487,14.487,0,0,1,1.566.584A7.538,7.538,0,0,1,11.3,13.988,7.436,7.436,0,0,1,8.146,15ZM6.853,15h0a7.465,7.465,0,0,1-4.462-1.99,7.573,7.573,0,0,1-1.064-1.235,14.586,14.586,0,0,1,1.566-.583,15.61,15.61,0,0,1,1.62-.406,11.257,11.257,0,0,0,.928,2.2,11.483,11.483,0,0,0,.646,1.034A11.72,11.72,0,0,0,6.853,15Zm.646-.687h0a10.671,10.671,0,0,1-.662-.854,10.5,10.5,0,0,1-.562-.9,10.369,10.369,0,0,1-.823-1.917,15.62,15.62,0,0,1,4.093,0,10.329,10.329,0,0,1-.823,1.917,10.5,10.5,0,0,1-.562.9,10.69,10.69,0,0,1-.662.854ZM.842,10.958h0a7.518,7.518,0,0,1,0-6.916l.049.022A15.71,15.71,0,0,0,2.559,4.7a16.657,16.657,0,0,0,1.723.441,11.44,11.44,0,0,0,0,4.733,16.636,16.636,0,0,0-1.725.438,15.305,15.305,0,0,0-1.668.629l-.049.022Zm13.316,0h0l-.048-.021a15.437,15.437,0,0,0-1.668-.628,16.77,16.77,0,0,0-1.725-.439A11.482,11.482,0,0,0,10.965,7.5a11.473,11.473,0,0,0-.246-2.367,16.538,16.538,0,0,0,1.723-.441,15.772,15.772,0,0,0,1.67-.632l.049-.022A7.536,7.536,0,0,1,15,7.5a7.507,7.507,0,0,1-.842,3.457ZM9.787,9.726h0a16.623,16.623,0,0,0-4.576,0,10.506,10.506,0,0,1,0-4.444A16.4,16.4,0,0,0,7.5,5.46c.371,0,.748-.016,1.152-.049.357-.029.729-.071,1.137-.129A10.5,10.5,0,0,1,10.026,7.5a10.519,10.519,0,0,1-.239,2.222ZM7.5,4.5a15.714,15.714,0,0,1-2.047-.134,10.368,10.368,0,0,1,.823-1.918,10.492,10.492,0,0,1,.562-.9A10.668,10.668,0,0,1,7.5.687a10.655,10.655,0,0,1,.662.854,10.5,10.5,0,0,1,.562.9,10.38,10.38,0,0,1,.823,1.918A15.7,15.7,0,0,1,7.5,4.5Zm2.987-.281a11.256,11.256,0,0,0-.928-2.2A11.479,11.479,0,0,0,8.912.977,11.719,11.719,0,0,0,8.146,0a7.465,7.465,0,0,1,4.462,1.99,7.561,7.561,0,0,1,1.063,1.235,14.493,14.493,0,0,1-1.566.584,15.733,15.733,0,0,1-1.62.406Zm-5.973,0a15.723,15.723,0,0,1-1.619-.406,14.662,14.662,0,0,1-1.567-.584A7.546,7.546,0,0,1,3.7,1.012,7.435,7.435,0,0,1,6.853,0a11.719,11.719,0,0,0-.766.977,11.48,11.48,0,0,0-.646,1.034,11.256,11.256,0,0,0-.928,2.2Z" transform="translate(0.032 0.031)" fill="#a52d01"/>
  </g>
</svg>
