<svg xmlns="http://www.w3.org/2000/svg" width="175.113" height="35.841" viewBox="0 0 175.113 35.841">
  <g id="Group_20243" data-name="Group 20243" transform="translate(-39.887 -35)">
    <path id="Path_9648" data-name="Path 9648" d="M29.1,4.211V15.019a4.47,4.47,0,0,1-.14,1.117c-3.195,12.338-14.3,19.7-14.3,19.7q-1.01-.728-1.928-1.449l6.546-4.167-7.235,3.617q-.676-.546-1.3-1.09l10.544-6.713L9.7,31.83q-.408-.372-.793-.743l13.227-8.421L7.782,29.843l-.08.04q-.389-.4-.751-.8L9.42,27.512l13.539-8.62L8.6,26.069,5.626,27.558q-.21-.258-.411-.51l4.2-2.677,13.539-8.62L8.6,22.929,3.9,25.277c-.079-.113-.156-.227-.232-.34l4.808-3.061,13.539-8.62L7.664,20.434,2.493,23.019c-.111-.2-.216-.391-.317-.582L7.16,19.264,20.7,10.644,6.343,17.822,1.211,20.387c-.084-.2-.163-.4-.235-.6l4.258-2.711,13.539-8.62L4.418,15.635.32,17.684c-.05-.2-.091-.393-.126-.568l2.361-1.5,13.538-8.62L1.738,14.171,0,15.039V13.917l12.874-8.2L0,12.157V10.526l8.8-5.6L0,9.325V6.9L4.222,4.211,0,6.322V4.211L13.285.2c.137-.041.271-.092.407-.138a1.421,1.421,0,0,1,.871.018c.106.036.213.07.32.1Z" transform="translate(39.887 35)" fill="#fff"/>
    <path id="Path_9649" data-name="Path 9649" d="M20.711,6.484V5.311h.151v1.04h.59v.133Z" transform="translate(39.887 35)" fill="#d11f2f"/>
    <path id="Path_9650" data-name="Path 9650" d="M21.6,6.033V5.311h.152v.722a.33.33,0,1,0,.658,0V5.311h.151v.722a.481.481,0,1,1-.961,0" transform="translate(39.887 35)" fill="#d11f2f"/>
    <path id="Path_9651" data-name="Path 9651" d="M22.768,6.484l.423-.62-.406-.553h.171l.327.464H23.3l.336-.464H23.8l-.415.553.432.62h-.169L23.3,5.963h-.014l-.345.521Z" transform="translate(39.887 35)" fill="#d11f2f"/>
    <path id="Path_9652" data-name="Path 9652" d="M24.03,6.033V5.311h.152v.722a.33.33,0,1,0,.658,0V5.311h.151v.722a.481.481,0,1,1-.961,0" transform="translate(39.887 35)" fill="#d11f2f"/>
    <path id="Path_9653" data-name="Path 9653" d="M25.3,6.484V5.311h.51c.254,0,.422.14.422.356a.357.357,0,0,1-.374.349h-.019l.425.468h-.191l-.406-.459h-.216v.459Zm.151-.592h.359c.168,0,.271-.087.271-.225s-.1-.222-.271-.222h-.359Z" transform="translate(39.887 35)" fill="#d11f2f"/>
    <path id="Path_9654" data-name="Path 9654" d="M26.752,6.484V6.055l-.424-.744h.16l.332.6h.017l.326-.6h.163l-.421.744v.429Z" transform="translate(39.887 35)" fill="#d11f2f"/>
    <path id="Path_9655" data-name="Path 9655" d="M20.711,8.473V7.3h.508a.335.335,0,0,1,.372.314.257.257,0,0,1-.172.244v.016a.28.28,0,0,1,.2.27.361.361,0,0,1-.405.329Zm.151-.669H21.2c.14,0,.239-.076.239-.185s-.1-.185-.239-.185h-.339Zm0,.536H21.2c.161,0,.276-.087.276-.2s-.115-.2-.276-.2h-.336Z" transform="translate(39.887 35)" fill="#d11f2f"/>
    <path id="Path_9656" data-name="Path 9656" d="M21.867,8.473V7.3h.51c.254,0,.422.14.422.356a.357.357,0,0,1-.374.349h-.019l.425.468H22.64l-.406-.459h-.216v.459Zm.151-.592h.359c.168,0,.271-.087.271-.225s-.1-.222-.271-.222h-.359Z" transform="translate(39.887 35)" fill="#d11f2f"/>
    <path id="Path_9657" data-name="Path 9657" d="M22.934,8.473,23.376,7.3h.206l.438,1.173h-.145l-.1-.263h-.6l-.1.263Zm.289-.388h.51l-.246-.651h-.016Z" transform="translate(39.887 35)" fill="#d11f2f"/>
    <path id="Path_9658" data-name="Path 9658" d="M24.224,8.473V7.3h.218L25,8.274h.015V7.3h.151V8.473h-.215L24.392,7.5h-.017v.973Z" transform="translate(39.887 35)" fill="#d11f2f"/>
    <path id="Path_9659" data-name="Path 9659" d="M25.476,8.473V7.3h.376a.592.592,0,1,1,0,1.173Zm.151-.133h.225c.314,0,.525-.173.525-.454a.462.462,0,0,0-.525-.452h-.225Z" transform="translate(39.887 35)" fill="#d11f2f"/>
    <path id="Path_9660" data-name="Path 9660" d="M26.7,8.092h.149c0,.182.13.289.35.289.191,0,.3-.083.3-.214,0-.162-.163-.188-.339-.217-.212-.033-.444-.087-.444-.342,0-.211.161-.349.444-.349s.462.149.464.4h-.147c0-.167-.116-.264-.317-.264s-.293.081-.293.208c0,.154.156.182.329.209.213.035.454.082.454.347,0,.22-.168.359-.456.359-.308,0-.5-.162-.5-.423" transform="translate(39.887 35)" fill="#d11f2f"/>
    <path id="Path_9661" data-name="Path 9661" d="M40.227,12.743c2.962,0,4.831.589,6.134,1.828a6.078,6.078,0,0,1,1.785,4.495,6.9,6.9,0,0,1-2.626,5.672A9.988,9.988,0,0,1,39.3,26.4H34.387V25.81c1.806-.168,1.89-.315,1.89-2.038V15.39c0-1.806-.252-1.89-1.89-2.058v-.589ZM38.1,23.6c0,1.575.672,2.017,2.248,2.017,3.781,0,5.713-2.584,5.713-6.26,0-2.29-.777-4.034-2.436-5.042a6.652,6.652,0,0,0-3.592-.84,2.983,2.983,0,0,0-1.66.294c-.189.126-.273.357-.273,1.176Z" transform="translate(39.887 35)" fill="#fff"/>
    <path id="Path_9662" data-name="Path 9662" d="M62.64,26.566c-.272,0-.5-.021-.777-.042a3.728,3.728,0,0,1-3.277-1.806c-.776-1.072-1.532-2.4-2.2-3.466-.422-.673-.694-.8-1.765-.8h-.735v3.3c0,1.786.23,1.891,1.91,2.059V26.4H50.185V25.81c1.742-.189,1.89-.273,1.89-2.059V15.37c0-1.786-.232-1.849-1.89-2.038v-.588h5.356a5.929,5.929,0,0,1,3.361.714,3.137,3.137,0,0,1,1.428,2.773,3.894,3.894,0,0,1-2.71,3.613c.379.651,1.282,2.059,1.912,3a19.438,19.438,0,0,0,1.659,2.164,3.025,3.025,0,0,0,1.534.966Zm-7.751-6.827A3.388,3.388,0,0,0,57.2,19.13a2.952,2.952,0,0,0,1.154-2.584,2.828,2.828,0,0,0-3.109-3.067,1.924,1.924,0,0,0-1.113.21c-.189.147-.251.357-.251.9v5.146Z" transform="translate(39.887 35)" fill="#fff"/>
    <path id="Path_9663" data-name="Path 9663" d="M63.461,26.4V25.81c1.722-.189,1.891-.273,1.891-2.059V15.412c0-1.807-.169-1.891-1.891-2.08v-.588h5.63v.588c-1.744.189-1.912.273-1.912,2.08v8.339c0,1.807.168,1.87,1.912,2.059V26.4Z" transform="translate(39.887 35)" fill="#fff"/>
    <path id="Path_9664" data-name="Path 9664" d="M84.215,13.332c-1.407.189-1.764.378-2.521,2.269-.567,1.386-3.466,8.423-4.5,11.028h-.693c-1.24-3.382-3.046-8.3-4.243-11.406-.589-1.555-.946-1.765-2.227-1.891v-.588h5.335v.588c-1.554.168-1.638.42-1.344,1.2.525,1.534,2.059,5.714,3.382,9.2,1.113-2.71,2.5-6.134,3.487-8.78.462-1.219.21-1.408-1.512-1.618v-.588h4.831Z" transform="translate(39.887 35)" fill="#fff"/>
    <path id="Path_9665" data-name="Path 9665" d="M95.937,23.058c-.126.546-.693,2.71-.9,3.34H84.824V25.81c1.954-.147,2.1-.336,2.1-2.059v-8.3c0-1.87-.231-1.975-1.806-2.122v-.588h6.428c1.974,0,2.794-.021,3.046-.042.02.525.1,2.1.189,3.214l-.631.1a7.006,7.006,0,0,0-.63-1.6c-.336-.693-.819-.84-2.079-.84h-2c-.651,0-.693.063-.693.672V18.9h2.331c1.576,0,1.681-.315,1.933-1.744h.651v4.327h-.651c-.273-1.512-.441-1.722-1.954-1.722h-2.31v4.18c0,1.471.462,1.6,1.512,1.618h1.954c1.281,0,1.491-.189,1.953-.735a9,9,0,0,0,1.135-1.933Z" transform="translate(39.887 35)" fill="#fff"/>
    <path id="Path_9666" data-name="Path 9666" d="M109.592,15.937c-.357-1.386-.945-2.752-2.92-2.752a2.094,2.094,0,0,0-2.206,2.29c0,1.449.925,2.184,2.668,3.088,2.521,1.3,3.613,2.268,3.613,4.264,0,2.206-1.911,3.886-4.621,3.886a8.761,8.761,0,0,1-3.214-.693,28.635,28.635,0,0,1-.567-3.151L103,22.7c.42,1.407,1.344,3.235,3.529,3.235a2.31,2.31,0,0,0,2.437-2.416c0-1.617-.862-2.268-2.71-3.277-2.206-1.2-3.445-2.2-3.445-4.159,0-1.869,1.554-3.634,4.327-3.634a13.444,13.444,0,0,1,2.773.4c.084.756.168,1.6.336,2.962Z" transform="translate(39.887 35)" fill="#fff"/>
    <path id="Path_9667" data-name="Path 9667" d="M127.175,13.332c-1.744.168-1.911.273-1.911,2.037v8.424c0,1.765.189,1.828,1.911,2.017V26.4h-5.63V25.81c1.744-.21,1.912-.252,1.912-2.017v-4.2h-7.184v4.2c0,1.744.168,1.807,1.89,2.017V26.4h-5.608V25.81c1.7-.189,1.89-.252,1.89-2.017V15.369c0-1.764-.189-1.869-1.89-2.037v-.588h5.608v.588c-1.68.147-1.89.294-1.89,2.037V18.71h7.184V15.369c0-1.743-.231-1.89-1.912-2.037v-.588h5.63Z" transform="translate(39.887 35)" fill="#fff"/>
    <path id="Path_9668" data-name="Path 9668" d="M129.3,26.4V25.81c1.722-.189,1.891-.273,1.891-2.059V15.412c0-1.807-.169-1.891-1.891-2.08v-.588h5.63v.588c-1.744.189-1.912.273-1.912,2.08v8.339c0,1.807.168,1.87,1.912,2.059V26.4Z" transform="translate(39.887 35)" fill="#fff"/>
    <path id="Path_9669" data-name="Path 9669" d="M147.951,23.058c-.126.546-.693,2.71-.9,3.34h-10.21V25.81c1.954-.147,2.1-.336,2.1-2.059v-8.3c0-1.87-.231-1.975-1.806-2.122v-.588h6.428c1.974,0,2.794-.021,3.046-.042.02.525.105,2.1.189,3.214l-.631.1a7,7,0,0,0-.63-1.6c-.336-.693-.819-.84-2.079-.84h-2c-.651,0-.693.063-.693.672V18.9H143.1c1.576,0,1.681-.315,1.933-1.744h.651v4.327h-.651c-.273-1.512-.441-1.722-1.954-1.722h-2.31v4.18c0,1.471.462,1.6,1.512,1.618h1.954c1.281,0,1.491-.189,1.953-.735a9,9,0,0,0,1.135-1.933Z" transform="translate(39.887 35)" fill="#fff"/>
    <path id="Path_9670" data-name="Path 9670" d="M159.967,22.911c-.126.651-.756,2.836-.966,3.487h-9.768V25.81c1.911-.189,2.079-.294,2.079-2.08V15.391c0-1.786-.21-1.891-1.89-2.059v-.588h5.629v.588c-1.68.168-1.911.252-1.911,2.059V23.94c0,1.282.168,1.576,1.365,1.6.021,0,1.534.021,1.66.021,1.071,0,1.386-.126,1.869-.651a7.1,7.1,0,0,0,1.282-2.164Z" transform="translate(39.887 35)" fill="#fff"/>
    <path id="Path_9671" data-name="Path 9671" d="M167.194,12.743c2.961,0,4.831.589,6.134,1.828a6.079,6.079,0,0,1,1.785,4.495,6.9,6.9,0,0,1-2.626,5.672,9.988,9.988,0,0,1-6.218,1.66h-4.915V25.81c1.806-.168,1.89-.315,1.89-2.038V15.39c0-1.806-.252-1.89-1.89-2.058v-.589ZM165.072,23.6c0,1.575.672,2.017,2.248,2.017,3.781,0,5.713-2.584,5.713-6.26,0-2.29-.777-4.034-2.436-5.042a6.652,6.652,0,0,0-3.592-.84,2.983,2.983,0,0,0-1.66.294c-.189.126-.273.357-.273,1.176Z" transform="translate(39.887 35)" fill="#fff"/>
    <rect id="Rectangle_7703" data-name="Rectangle 7703" width="0.399" height="4.051" transform="translate(90.352 65.687)" fill="#fff"/>
    <path id="Path_9672" data-name="Path 9672" d="M54.337,31.741h.38v.537a1.6,1.6,0,0,1,.505-.462,1.239,1.239,0,0,1,.6-.152,1.028,1.028,0,0,1,.588.171,1.008,1.008,0,0,1,.379.46,2.467,2.467,0,0,1,.122.9v1.542h-.38v-1.43a3.475,3.475,0,0,0-.043-.69.692.692,0,0,0-.742-.6.931.931,0,0,0-.618.232,1.07,1.07,0,0,0-.359.572,3.963,3.963,0,0,0-.055.815v1.1h-.38Z" transform="translate(39.887 35)" fill="#fff"/>
    <path id="Path_9673" data-name="Path 9673" d="M60.349,31.741h.38v.537a1.6,1.6,0,0,1,.505-.462,1.239,1.239,0,0,1,.6-.152,1.028,1.028,0,0,1,.588.171,1.008,1.008,0,0,1,.379.46,2.467,2.467,0,0,1,.122.9v1.542h-.38v-1.43a3.475,3.475,0,0,0-.043-.69.692.692,0,0,0-.742-.6.931.931,0,0,0-.618.232,1.07,1.07,0,0,0-.359.572,3.963,3.963,0,0,0-.055.815v1.1h-.38Z" transform="translate(39.887 35)" fill="#fff"/>
    <path id="Path_9674" data-name="Path 9674" d="M67.759,31.664a1.456,1.456,0,0,1,1.132.5,1.625,1.625,0,0,1-.024,2.18,1.547,1.547,0,0,1-2.219,0,1.621,1.621,0,0,1-.024-2.177,1.456,1.456,0,0,1,1.135-.5m0,.377a1.093,1.093,0,0,0-.815.355,1.2,1.2,0,0,0-.341.86,1.233,1.233,0,0,0,.155.6,1.111,1.111,0,0,0,.42.434,1.178,1.178,0,0,0,1.161,0,1.1,1.1,0,0,0,.42-.434,1.222,1.222,0,0,0,.155-.6,1.2,1.2,0,0,0-.342-.86,1.1,1.1,0,0,0-.813-.355" transform="translate(39.887 35)" fill="#fff"/>
    <path id="Path_9675" data-name="Path 9675" d="M72.342,31.741h.4l.991,2.184.981-2.184h.407l-1.352,3H73.7Z" transform="translate(39.887 35)" fill="#fff"/>
    <path id="Path_9676" data-name="Path 9676" d="M81.268,31.741v3h-.374v-.514a1.664,1.664,0,0,1-.538.443,1.484,1.484,0,0,1-1.721-.313,1.557,1.557,0,0,1-.444-1.123,1.533,1.533,0,0,1,.448-1.106,1.448,1.448,0,0,1,1.078-.46,1.374,1.374,0,0,1,.659.157,1.523,1.523,0,0,1,.518.471v-.551Zm-1.52.3a1.141,1.141,0,0,0-1.013.6,1.225,1.225,0,0,0,0,1.209,1.174,1.174,0,0,0,.431.45,1.115,1.115,0,0,0,.579.161,1.178,1.178,0,0,0,.591-.159,1.115,1.115,0,0,0,.43-.432,1.255,1.255,0,0,0,.151-.614,1.2,1.2,0,0,0-.338-.869,1.113,1.113,0,0,0-.832-.349" transform="translate(39.887 35)" fill="#fff"/>
    <path id="Path_9677" data-name="Path 9677" d="M85.074,30.629h.38v1.112h.6v.333h-.6v2.663h-.38V32.074h-.519v-.333h.519Z" transform="translate(39.887 35)" fill="#fff"/>
    <path id="Path_9678" data-name="Path 9678" d="M89.379,30.508a.307.307,0,0,1,.222.093.317.317,0,0,1,.091.227.309.309,0,0,1-.091.222.307.307,0,0,1-.442,0,.31.31,0,0,1-.092-.222.318.318,0,0,1,.092-.227.3.3,0,0,1,.22-.093m-.189,1.234h.381v3H89.19Z" transform="translate(39.887 35)" fill="#fff"/>
    <path id="Path_9679" data-name="Path 9679" d="M92.7,31.741h.4l.991,2.184.981-2.184h.407l-1.352,3h-.071Z" transform="translate(39.887 35)" fill="#fff"/>
    <path id="Path_9680" data-name="Path 9680" d="M101.17,33.744l.32.171a1.751,1.751,0,0,1-.364.506,1.446,1.446,0,0,1-.465.293,1.576,1.576,0,0,1-.584.1,1.4,1.4,0,0,1-1.131-.481,1.637,1.637,0,0,1-.408-1.086,1.611,1.611,0,0,1,.346-1.016,1.4,1.4,0,0,1,1.172-.567,1.448,1.448,0,0,1,1.206.581,1.631,1.631,0,0,1,.326,1.024H98.93a1.225,1.225,0,0,0,.329.855,1.04,1.04,0,0,0,.785.334,1.244,1.244,0,0,0,.439-.079,1.148,1.148,0,0,0,.364-.212,1.779,1.779,0,0,0,.323-.424m0-.807a1.273,1.273,0,0,0-.222-.493,1.044,1.044,0,0,0-.384-.3,1.172,1.172,0,0,0-.5-.112,1.076,1.076,0,0,0-.748.283,1.285,1.285,0,0,0-.345.62Z" transform="translate(39.887 35)" fill="#fff"/>
    <path id="Path_9681" data-name="Path 9681" d="M109.136,30.687h.795a4.551,4.551,0,0,1,.923.06,1,1,0,0,1,.778,1.019.982.982,0,0,1-.8,1.021,5.009,5.009,0,0,1-1.016.067h-.285v1.883h-.4Zm.4.4v1.374l.676.009a1.755,1.755,0,0,0,.6-.076.612.612,0,0,0,.3-.245.689.689,0,0,0,.109-.377.68.68,0,0,0-.109-.373.6.6,0,0,0-.287-.241,1.688,1.688,0,0,0-.582-.071Z" transform="translate(39.887 35)" fill="#fff"/>
    <path id="Path_9682" data-name="Path 9682" d="M114.843,31.741h.389v.437a1.382,1.382,0,0,1,.367-.386.716.716,0,0,1,.4-.128.691.691,0,0,1,.337.1l-.2.326a.509.509,0,0,0-.2-.053.542.542,0,0,0-.366.159,1,1,0,0,0-.27.491,4.8,4.8,0,0,0-.07,1.035v1.014h-.389Z" transform="translate(39.887 35)" fill="#fff"/>
    <path id="Path_9683" data-name="Path 9683" d="M120.679,31.664a1.456,1.456,0,0,1,1.132.5,1.625,1.625,0,0,1-.024,2.18,1.547,1.547,0,0,1-2.219,0,1.621,1.621,0,0,1-.024-2.177,1.456,1.456,0,0,1,1.135-.5m0,.377a1.093,1.093,0,0,0-.815.355,1.2,1.2,0,0,0-.341.86,1.233,1.233,0,0,0,.155.6,1.111,1.111,0,0,0,.42.434,1.178,1.178,0,0,0,1.161,0,1.1,1.1,0,0,0,.42-.434,1.222,1.222,0,0,0,.155-.6,1.2,1.2,0,0,0-.342-.86,1.1,1.1,0,0,0-.813-.355" transform="translate(39.887 35)" fill="#fff"/>
    <path id="Path_9684" data-name="Path 9684" d="M125.873,30.629h.38v1.112h.6v.333h-.6v2.663h-.38V32.074h-.519v-.333h.519Z" transform="translate(39.887 35)" fill="#fff"/>
    <path id="Path_9685" data-name="Path 9685" d="M132.533,33.744l.32.171a1.752,1.752,0,0,1-.364.506,1.446,1.446,0,0,1-.465.293,1.576,1.576,0,0,1-.584.1,1.4,1.4,0,0,1-1.131-.481,1.637,1.637,0,0,1-.408-1.086,1.611,1.611,0,0,1,.346-1.016,1.4,1.4,0,0,1,1.172-.567,1.448,1.448,0,0,1,1.206.581,1.631,1.631,0,0,1,.326,1.024h-2.658a1.226,1.226,0,0,0,.329.855,1.04,1.04,0,0,0,.785.334,1.244,1.244,0,0,0,.439-.079,1.148,1.148,0,0,0,.364-.212,1.779,1.779,0,0,0,.323-.424m0-.807a1.274,1.274,0,0,0-.222-.493,1.044,1.044,0,0,0-.384-.3,1.172,1.172,0,0,0-.5-.112,1.076,1.076,0,0,0-.748.283,1.285,1.285,0,0,0-.345.62Z" transform="translate(39.887 35)" fill="#fff"/>
    <path id="Path_9686" data-name="Path 9686" d="M139.148,32.364l-.3.19a1.256,1.256,0,0,0-1.065-.526,1.225,1.225,0,0,0-.9.353,1.157,1.157,0,0,0-.356.855,1.24,1.24,0,0,0,.164.616,1.163,1.163,0,0,0,.45.449,1.3,1.3,0,0,0,.642.159,1.29,1.29,0,0,0,1.063-.526l.3.2a1.418,1.418,0,0,1-.569.5,1.784,1.784,0,0,1-.813.179,1.588,1.588,0,0,1-1.162-.452,1.479,1.479,0,0,1-.463-1.1,1.589,1.589,0,0,1,.216-.807,1.527,1.527,0,0,1,.594-.583,1.705,1.705,0,0,1,.845-.209,1.755,1.755,0,0,1,.565.091,1.561,1.561,0,0,1,.465.236,1.328,1.328,0,0,1,.322.372" transform="translate(39.887 35)" fill="#fff"/>
    <path id="Path_9687" data-name="Path 9687" d="M142.83,30.629h.38v1.112h.6v.333h-.6v2.663h-.38V32.074h-.519v-.333h.519Z" transform="translate(39.887 35)" fill="#fff"/>
    <path id="Path_9688" data-name="Path 9688" d="M147.135,30.508a.307.307,0,0,1,.222.093.317.317,0,0,1,.091.227.309.309,0,0,1-.091.222.307.307,0,0,1-.442,0,.31.31,0,0,1-.092-.222.318.318,0,0,1,.092-.227.3.3,0,0,1,.22-.093m-.19,1.234h.381v3h-.381Z" transform="translate(39.887 35)" fill="#fff"/>
    <path id="Path_9689" data-name="Path 9689" d="M152.135,31.664a1.456,1.456,0,0,1,1.132.5,1.625,1.625,0,0,1-.024,2.18,1.547,1.547,0,0,1-2.219,0A1.621,1.621,0,0,1,151,32.168a1.456,1.456,0,0,1,1.135-.5m0,.377a1.093,1.093,0,0,0-.815.355,1.2,1.2,0,0,0-.341.86,1.233,1.233,0,0,0,.155.6,1.111,1.111,0,0,0,.42.434,1.178,1.178,0,0,0,1.161,0,1.1,1.1,0,0,0,.42-.434,1.222,1.222,0,0,0,.155-.6,1.2,1.2,0,0,0-.342-.86,1.1,1.1,0,0,0-.813-.355" transform="translate(39.887 35)" fill="#fff"/>
    <path id="Path_9690" data-name="Path 9690" d="M157,31.741h.38v.537a1.6,1.6,0,0,1,.5-.462,1.239,1.239,0,0,1,.6-.152,1.028,1.028,0,0,1,.588.171,1.008,1.008,0,0,1,.379.46,2.467,2.467,0,0,1,.122.9v1.542h-.38v-1.43a3.474,3.474,0,0,0-.043-.69.692.692,0,0,0-.742-.6.931.931,0,0,0-.618.232,1.07,1.07,0,0,0-.359.572,3.963,3.963,0,0,0-.055.815v1.1H157Z" transform="translate(39.887 35)" fill="#fff"/>
    <path id="Path_9691" data-name="Path 9691" d="M39.058,6.639a3.27,3.27,0,0,0-.276-.715c-.137-.233-.224-.293-.7-.293h-.862v4.2c0,.672.07.767.888.818v.242H35.6v-.242c.8-.051.871-.137.871-.818v-4.2h-.785c-.474,0-.611.051-.758.31a3.943,3.943,0,0,0-.285.7h-.258c.052-.526.1-1.069.129-1.551h.2c.129.207.224.2.465.2h3.413a.431.431,0,0,0,.439-.2h.207c0,.405.035,1.025.078,1.525Z" transform="translate(39.887 35)" fill="#fff"/>
    <path id="Path_9692" data-name="Path 9692" d="M46.021,5.528c-.716.069-.784.112-.784.836V9.82c0,.724.077.75.784.827v.241h-2.31v-.241c.716-.086.784-.1.784-.827V8.1H41.548V9.82c0,.715.069.741.776.827v.241h-2.3v-.241c.7-.077.775-.1.775-.827V6.364c0-.724-.077-.767-.775-.836V5.287h2.3v.241c-.69.06-.776.121-.776.836v1.37h2.947V6.364c0-.715-.094-.776-.784-.836V5.287h2.31Z" transform="translate(39.887 35)" fill="#fff"/>
    <path id="Path_9693" data-name="Path 9693" d="M51.363,9.518c-.052.224-.284,1.112-.371,1.37H46.8v-.241c.8-.06.862-.138.862-.845V6.4c0-.767-.1-.81-.741-.87V5.286h2.637c.81,0,1.146-.008,1.249-.017.009.216.044.862.078,1.319l-.259.043a2.839,2.839,0,0,0-.258-.655c-.138-.285-.336-.345-.853-.345H48.7c-.267,0-.284.026-.284.276v1.9h.956c.647,0,.69-.13.793-.716h.267V8.872h-.267c-.112-.621-.181-.707-.8-.707h-.948V9.88c0,.6.189.655.62.664h.8c.525,0,.612-.078.8-.3a3.691,3.691,0,0,0,.466-.793Z" transform="translate(39.887 35)" fill="#fff"/>
  </g>
</svg>
