<svg xmlns="http://www.w3.org/2000/svg" width="33.514" height="22.492" viewBox="0 0 33.514 22.492">
  <path id="Union_7" data-name="Union 7" d="M10.021,21.985.507,12.471A1.732,1.732,0,0,1,0,11.247c0-.009,0-.019,0-.028s0-.019,0-.028A1.731,1.731,0,0,1,.8,9.733L10.021.507a1.732,1.732,0,0,1,2.45,2.45l-6.5,6.5H19.881a1.733,1.733,0,0,1,0,3.465H5.859l6.612,6.612a1.732,1.732,0,0,1-2.45,2.45Zm16.267-9.062a1.733,1.733,0,1,1,0-3.465h5.493a1.733,1.733,0,1,1,0,3.465Z" transform="translate(0)" fill="#f5eee6"/>
</svg>
