<svg xmlns="http://www.w3.org/2000/svg" width="22.101" height="27.704" viewBox="0 0 22.101 27.704">
  <g id="notification" transform="translate(-3.25 -1.25)">
    <path id="Path_1" data-name="Path 1" d="M14.3,3.183A6.877,6.877,0,0,0,7.424,10.06v2.7A5.461,5.461,0,0,1,6.774,15.2c-.247.5-.557,1-.834,1.446-.1.169-.2.33-.293.48a3.291,3.291,0,0,0-.465,1.693,3.153,3.153,0,0,0,2.688,3.164,51.3,51.3,0,0,0,6.43.556,51.3,51.3,0,0,0,6.43-.556,3.153,3.153,0,0,0,2.688-3.164,3.291,3.291,0,0,0-.465-1.693c-.09-.15-.189-.311-.293-.48-.277-.449-.587-.951-.834-1.446a5.461,5.461,0,0,1-.649-2.445v-2.7A6.877,6.877,0,0,0,14.3,3.183ZM5.491,10.06a8.81,8.81,0,0,1,17.62,0v2.7a3.56,3.56,0,0,0,.446,1.581c.206.413.443.8.7,1.215.115.186.234.379.357.585a5.224,5.224,0,0,1,.737,2.683A5.085,5.085,0,0,1,21,23.9a53.1,53.1,0,0,1-6.7.574,53.1,53.1,0,0,1-6.7-.574A5.085,5.085,0,0,1,3.25,18.819a5.224,5.224,0,0,1,.737-2.683c.123-.206.242-.4.357-.585.258-.418.495-.8.7-1.215a3.56,3.56,0,0,0,.446-1.581Z" fill="#fff" fill-rule="evenodd"/>
    <path id="Path_2" data-name="Path 2" d="M16.006,20.246a.966.966,0,0,0-1.34.27,2.4,2.4,0,0,1-3.993,0,.966.966,0,1,0-1.609,1.07,4.329,4.329,0,0,0,7.212,0A.967.967,0,0,0,16.006,20.246Z" transform="translate(1.631 5.435)" fill="#fff" fill-rule="evenodd"/>
  </g>
</svg>
