<svg id="store" xmlns="http://www.w3.org/2000/svg" width="22.344" height="22.352" viewBox="0 0 22.344 22.352">
  <path id="Exclusion_1" data-name="Exclusion 1" d="M17.193,22.351H5.146a4.039,4.039,0,0,1-4.035-4.035V13.411a1.117,1.117,0,1,1,2.235,0v4.905a1.8,1.8,0,0,0,1.8,1.8H6.7V16.764a4.47,4.47,0,1,1,8.941,0v3.353h1.554a1.8,1.8,0,0,0,1.8-1.8V13.411a1.118,1.118,0,1,1,2.236,0v4.905A4.039,4.039,0,0,1,17.193,22.351Zm.831-11.176a4.4,4.4,0,0,1-3.362-1.543,4.719,4.719,0,0,1-6.98,0,4.4,4.4,0,0,1-3.362,1.543A4.425,4.425,0,0,1,.81,9.484,3.851,3.851,0,0,1,.136,6.112l.975-3.58A3.441,3.441,0,0,1,4.423,0h13.5a3.442,3.442,0,0,1,3.314,2.532l.975,3.58a3.849,3.849,0,0,1-.675,3.372A4.42,4.42,0,0,1,18.024,11.176Z" transform="translate(0 0)" fill="#a5361f"/>
</svg>
