<svg xmlns="http://www.w3.org/2000/svg" width="16.577" height="21.506" viewBox="0 0 16.577 21.506">
  <g id="Layer_2" data-name="Layer 2" transform="translate(-3.711 -1.244)">
    <path id="Path_10116" data-name="Path 10116" d="M20.274,19.488a8.311,8.311,0,0,0-5.622-7.046,5.913,5.913,0,1,0-5.3,0,8.311,8.311,0,0,0-5.622,7.046A2.967,2.967,0,0,0,6.678,22.75H17.322a2.967,2.967,0,0,0,2.952-3.262Z" fill="#0db561"/>
    <path id="Path_10117" data-name="Path 10117" d="M14,19.75H10a.75.75,0,0,1,0-1.5h4a.75.75,0,1,1,0,1.5Z" fill="#fff"/>
  </g>
</svg>
