<svg xmlns="http://www.w3.org/2000/svg" width="22.34" height="26.777" viewBox="0 0 22.34 26.777">
  <path id="Exclusion_2" data-name="Exclusion 2" d="M17.617,26.777H4.723a4.753,4.753,0,0,1-3.4-1.241A4.447,4.447,0,0,1,0,22.172c0-.537.018-1.069.054-1.581A15.876,15.876,0,0,1,.271,18.9a13.362,13.362,0,0,1,.416-1.7,8.417,8.417,0,0,1,.7-1.587A5.987,5.987,0,0,1,2.44,14.236a4.647,4.647,0,0,1,1.515-.952,5.229,5.229,0,0,1,1.934-.35,1.96,1.96,0,0,1,1.048.445c.319.208.686.445,1.093.7a6.242,6.242,0,0,0,1.412.622,5.487,5.487,0,0,0,3.456,0,6.257,6.257,0,0,0,1.413-.622c.408-.261.775-.5,1.092-.7a1.963,1.963,0,0,1,1.048-.445,5.235,5.235,0,0,1,1.934.35,4.65,4.65,0,0,1,1.515.952,5.986,5.986,0,0,1,1.055,1.374,8.4,8.4,0,0,1,.7,1.586,13.33,13.33,0,0,1,.416,1.7,15.932,15.932,0,0,1,.217,1.692c.036.51.054,1.042.054,1.582a4.444,4.444,0,0,1-1.321,3.364A4.753,4.753,0,0,1,17.617,26.777ZM11,12.9a6.242,6.242,0,0,1-4.56-1.889,6.24,6.24,0,0,1-1.89-4.56,6.24,6.24,0,0,1,1.889-4.56A6.24,6.24,0,0,1,11,0a6.242,6.242,0,0,1,4.56,1.889,6.241,6.241,0,0,1,1.889,4.56,6.24,6.24,0,0,1-1.889,4.56A6.24,6.24,0,0,1,11,12.9Z" fill="#e9ebf1"/>
</svg>
