<svg xmlns="http://www.w3.org/2000/svg" width="22.375" height="23.397" viewBox="0 0 22.375 23.397">
  <g id="Group_10271" data-name="Group 10271" transform="translate(1173.2 -5184.999)">
    <g id="_97" data-name="97" transform="translate(-1173.2 5184.999)">
      <path id="Path_4864" data-name="Path 4864" d="M2.933,0H13.1a2.932,2.932,0,0,1,2.932,2.932v15.65a2.047,2.047,0,0,1-2.047,2.047H2.933A2.932,2.932,0,0,1,0,17.7V2.932A2.932,2.932,0,0,1,2.932,0Z" transform="translate(16.037 20.63) rotate(180)" fill="#35d97e"/>
      <path id="Path_4865" data-name="Path 4865" d="M126.611,121.532,131.6,123.3a1.758,1.758,0,0,0,2.316-1.709V104.094a1.8,1.8,0,0,0-1.183-1.71l-6.436-2.278a1.9,1.9,0,0,0-2.5,1.842v15.518A4.29,4.29,0,0,0,126.611,121.532Z" transform="translate(-123.8 -99.999)" fill="#b2f3ca"/>
      <path id="Path_4866" data-name="Path 4866" d="M300.47,210.834l-3.706-2.709a.9.9,0,0,0-1.425.724v1.522h-3.15a1.188,1.188,0,1,0,0,2.376h3.15v1.522a.9.9,0,0,0,1.425.724l3.706-2.709a.9.9,0,0,0,0-1.45Z" transform="translate(-278.462 -199.861)" fill="#a360f9"/>
    </g>
  </g>
</svg>
