<svg xmlns="http://www.w3.org/2000/svg" width="17" height="18.711" viewBox="0 0 17 18.711">
  <g id="Layer_2" data-name="Layer 2" transform="translate(-3 -2.067)">
    <path id="Path_21" data-name="Path 21" d="M11.944,8A.944.944,0,0,0,11,8.944v1.067a3.693,3.693,0,0,1,1.889,0V8.944A.944.944,0,0,0,11.944,8Z" transform="translate(-0.444 -0.33)" fill="#d4ae6d"/>
    <path id="Path_22" data-name="Path 22" d="M11.889,12a1.889,1.889,0,1,0,1.634.944A1.889,1.889,0,0,0,11.889,12Z" transform="translate(-0.389 -0.552)" fill="#d4ae6d"/>
    <path id="Path_23" data-name="Path 23" d="M18.385,4.762a10.191,10.191,0,0,1-2.72-.784,10.2,10.2,0,0,1-1.889-1.152,3.683,3.683,0,0,0-4.477,0A10.2,10.2,0,0,1,7.411,3.978a10.191,10.191,0,0,1-2.72.784A1.889,1.889,0,0,0,3,6.632v5.449a7.556,7.556,0,0,0,4.174,6.762l3.485,1.738a1.889,1.889,0,0,0,1.681,0l3.485-1.738A7.556,7.556,0,0,0,20,12.081V6.632a1.889,1.889,0,0,0-1.615-1.87ZM11.5,17.115a3.778,3.778,0,0,1-2.833-6.271V8.615a2.833,2.833,0,0,1,5.667,0v2.229A3.778,3.778,0,0,1,11.5,17.115Z" transform="translate(0)" fill="#d4ae6d"/>
  </g>
</svg>
