<svg xmlns="http://www.w3.org/2000/svg" width="19.176" height="19.458" viewBox="0 0 19.176 19.458">
  <path id="store-2" d="M20.406,9.852H4.074A1.43,1.43,0,0,1,2.788,7.8L5.237,2.75a1.432,1.432,0,0,1,1.286-.81H8.735L7.908,5.475a.3.3,0,0,0,.227.365.278.278,0,0,0,.069,0A.3.3,0,0,0,8.5,5.6l.843-3.591a.267.267,0,0,0,0-.069h2.593v3.6a.3.3,0,0,0,.608,0V1.952h2.585a.267.267,0,0,0,0,.069l.843,3.6a.3.3,0,0,0,.294.235.282.282,0,0,0,.071,0,.3.3,0,0,0,.227-.365l-.818-3.539h2.212a1.432,1.432,0,0,1,1.286.81l2.451,5.064a1.43,1.43,0,0,1-1.286,2.026ZM15.237,14.7h-6a.488.488,0,0,0-.488.488V21.4h6.972V15.186a.488.488,0,0,0-.488-.488ZM3.92,10.46v8.453A2.494,2.494,0,0,0,6.413,21.4H8.145V15.186a1.1,1.1,0,0,1,1.1-1.1h6a1.1,1.1,0,0,1,1.1,1.1V21.4h1.732a2.494,2.494,0,0,0,2.494-2.485V10.46Z" transform="translate(-2.647 -1.94)" fill="#d18742"/>
</svg>
