<svg xmlns="http://www.w3.org/2000/svg" width="17.179" height="20.042" viewBox="0 0 17.179 20.042">
  <g id="file-2" transform="translate(-6 -3)">
    <path id="Path_201" data-name="Path 201" d="M13,23h7.635v1.909H13Z" transform="translate(-3.66 -10.456)" fill="#d18742"/>
    <path id="Path_202" data-name="Path 202" d="M31,23h1.909v1.909H31Z" transform="translate(-13.07 -10.456)" fill="#d18742"/>
    <path id="Path_203" data-name="Path 203" d="M31,29h1.909v1.909H31Z" transform="translate(-13.07 -13.593)" fill="#d18742"/>
    <path id="Path_204" data-name="Path 204" d="M32.909,18.909V17.477A.477.477,0,0,0,32.432,17H31v1.909Z" transform="translate(-13.07 -7.319)" fill="#d18742"/>
    <path id="Path_205" data-name="Path 205" d="M33.477,7.022h3.471a1.909,1.909,0,0,0-.254-.294L33.5,3.721A1.909,1.909,0,0,0,33,3.39V6.544A.477.477,0,0,0,33.477,7.022Z" transform="translate(-14.116 -0.204)" fill="#d18742"/>
    <path id="Path_206" data-name="Path 206" d="M21,35v.954a.477.477,0,0,0,.477.477H27.2a.477.477,0,0,0,.477-.477V35Z" transform="translate(-7.842 -16.73)" fill="#d18742"/>
    <path id="Path_207" data-name="Path 207" d="M19.362,7.772A1.432,1.432,0,0,1,17.93,6.34V3H7.909A1.909,1.909,0,0,0,6,4.909V21.134a1.909,1.909,0,0,0,1.909,1.909H21.27a1.909,1.909,0,0,0,1.909-1.909V7.915c0-.048-.011-.1-.015-.143ZM8.863,5.863h2.863a.477.477,0,1,1,0,.954H8.863a.477.477,0,1,1,0-.954Zm11.93,6.2v7.158a1.432,1.432,0,0,1-1.432,1.432H13.635A1.432,1.432,0,0,1,12.2,19.225V18.27H9.818a1.432,1.432,0,0,1-1.432-1.432V10.158A1.432,1.432,0,0,1,9.818,8.726h9.544a1.432,1.432,0,0,1,1.432,1.432Z" fill="#d18742"/>
    <path id="Path_208" data-name="Path 208" d="M20.635,30.909V29H13v1.432a.477.477,0,0,0,.477.477Z" transform="translate(-3.66 -13.593)" fill="#d18742"/>
    <path id="Path_209" data-name="Path 209" d="M20.635,17H13.477a.477.477,0,0,0-.477.477v1.432h7.635Z" transform="translate(-3.66 -7.319)" fill="#d18742"/>
  </g>
</svg>
