<svg xmlns="http://www.w3.org/2000/svg" width="16.824" height="18.695" viewBox="0 0 16.824 18.695">
  <g id="Layer_2" data-name="Layer 2" transform="translate(-3 -1.999)">
    <path id="Path_194" data-name="Path 194" d="M18.955,2.477a1.869,1.869,0,0,0-1.8-.112c-.224.112-.421.234-.626.355a2.178,2.178,0,0,1-1.374.439,2.215,2.215,0,0,1-1.374-.439A4,4,0,0,0,11.412,2a4.01,4.01,0,0,0-2.365.72,2.225,2.225,0,0,1-1.374.439A2.2,2.2,0,0,1,6.3,2.72c-.2-.122-.4-.243-.626-.355A1.869,1.869,0,0,0,3,4.056V18.637a1.869,1.869,0,0,0,2.673,1.692c.224-.112.43-.234.626-.355a2.2,2.2,0,0,1,1.374-.439,2.225,2.225,0,0,1,1.383.439,4.01,4.01,0,0,0,2.355.72,4,4,0,0,0,2.355-.72,2.215,2.215,0,0,1,1.383-.439,2.178,2.178,0,0,1,1.374.439,6.72,6.72,0,0,0,.626.346,1.869,1.869,0,0,0,2.673-1.682V4.056a1.869,1.869,0,0,0-.869-1.58ZM7.673,14.151a.935.935,0,1,1,.935-.935A.935.935,0,0,1,7.673,14.151Zm0-3.739a.935.935,0,1,1,.935-.935A.935.935,0,0,1,7.673,10.412Zm7.477,3.739H10.477a.935.935,0,0,1,0-1.869h4.673a.935.935,0,0,1,0,1.869Zm0-3.739H10.477a.935.935,0,0,1,0-1.869h4.673a.935.935,0,0,1,0,1.869Z" transform="translate(0 0)" fill="#a5361f"/>
  </g>
</svg>
