<svg xmlns="http://www.w3.org/2000/svg" width="16.824" height="18.694" viewBox="0 0 16.824 18.694">
  <g id="Layer_2" data-name="Layer 2" transform="translate(-3 -2)">
    <path id="Path_210" data-name="Path 210" d="M17.02,2H5.8A2.8,2.8,0,0,0,3,4.8V18.637a1.869,1.869,0,0,0,2.673,1.692c.224-.112.421-.234.626-.355a2.2,2.2,0,0,1,1.374-.439,2.225,2.225,0,0,1,1.383.439,4.01,4.01,0,0,0,2.355.72,4,4,0,0,0,2.355-.72,2.215,2.215,0,0,1,1.383-.439,2.178,2.178,0,0,1,1.374.439,6.721,6.721,0,0,0,.626.346,1.869,1.869,0,0,0,2.673-1.682V4.8A2.8,2.8,0,0,0,17.02,2ZM11.412,15.086H7.673a.935.935,0,1,1,0-1.869h3.739a.935.935,0,1,1,0,1.869Zm3.739-3.739H7.673a.935.935,0,1,1,0-1.869h7.477a.935.935,0,0,1,0,1.869Zm0-3.739H7.673a.935.935,0,0,1,0-1.869h7.477a.935.935,0,0,1,0,1.869Z" transform="translate(0)" fill="#d4ae6d"/>
  </g>
</svg>
