<svg xmlns="http://www.w3.org/2000/svg" width="16.824" height="16.665" viewBox="0 0 16.824 16.665">
  <g id="money-bag" transform="translate(0 -2.43)">
    <path id="Path_195" data-name="Path 195" d="M88.964,17.3a3.517,3.517,0,0,1,.825-1.732,3.029,3.029,0,0,0-2.466,1.256c.314.084.665.188,1.007.29C88.538,17.179,88.758,17.245,88.964,17.3Z" transform="translate(-84.453 -12.71)" fill="#b75c3f"/>
    <path id="Path_196" data-name="Path 196" d="M241.3,216.9a.494.494,0,0,0-.493.493v.493a.493.493,0,1,0,.986,0v-.493A.494.494,0,0,0,241.3,216.9Z" transform="translate(-232.889 -207.417)" fill="#b75c3f"/>
    <path id="Path_197" data-name="Path 197" d="M33.859,77.295a8.5,8.5,0,0,1,1.981,2.13,9.913,9.913,0,0,0,3.679,1.188,1.478,1.478,0,0,1,2.65,0,9.853,9.853,0,0,0,3.686-1.189A5.922,5.922,0,0,1,47.477,77.6a4.2,4.2,0,0,0,.424-.375c.347-.38.247-.673.156-.815-.247-.385-.76-.256-1.066-.178s-.686.2-1.091.33a10.048,10.048,0,0,1-1.817.481,4.1,4.1,0,0,1-1.446-.334,5.121,5.121,0,0,0-1.725-.393,5.234,5.234,0,0,0-1.76.406,3.378,3.378,0,0,1-1.677.316c-.331-.063-.9-.23-1.441-.392-.445-.132-.9-.268-1.26-.354-.419-.1-.941-.228-1.168.191C33.5,76.671,33.468,76.962,33.859,77.295Z" transform="translate(-32.436 -71.296)" fill="#b75c3f"/>
    <path id="Path_198" data-name="Path 198" d="M15.943,201.593a7.109,7.109,0,0,0-1.906-2.065,10.75,10.75,0,0,1-3.967,1.358,4.644,4.644,0,0,1,1.265,3.353c0,.128,0,.257-.013.385a.493.493,0,0,1-.491.46H10.8a.493.493,0,0,1-.459-.525c.007-.106.011-.213.011-.318a3.976,3.976,0,0,0-.7-2.348,1.477,1.477,0,0,1-2.478,0,3.986,3.986,0,0,0-.7,2.347c0,.082,0,.166.007.249a.493.493,0,0,1-.467.518H5.983a.493.493,0,0,1-.492-.467c-.005-.1-.008-.2-.008-.3a4.656,4.656,0,0,1,1.265-3.353A11.063,11.063,0,0,1,3.9,200.1a9.832,9.832,0,0,1-1.111-.564A7.3,7.3,0,0,0,.86,201.653a5.38,5.38,0,0,0-.755,3.895,4.578,4.578,0,0,0,2.44,3.012,12.3,12.3,0,0,0,5.795,1.154h.211a12.075,12.075,0,0,0,5.834-1.25,4.567,4.567,0,0,0,2.347-3.028,5.351,5.351,0,0,0-.79-3.843Z" transform="translate(0 -190.619)" fill="#b75c3f"/>
    <path id="Path_199" data-name="Path 199" d="M169.766,4.037a5.981,5.981,0,0,1,2.055.45,3.725,3.725,0,0,0,1.059.278h.02a3.177,3.177,0,0,0-6.128.007,5.465,5.465,0,0,0,.9-.271,6.092,6.092,0,0,1,2.092-.463Z" transform="translate(-161.291)" fill="#b75c3f"/>
    <path id="Path_200" data-name="Path 200" d="M359.061,17.038c.357-.115.7-.223.994-.305a3.055,3.055,0,0,0-2.4-1.162,3.526,3.526,0,0,1,.811,1.655C358.69,17.158,358.906,17.088,359.061,17.038Z" transform="translate(-345.898 -12.709)" fill="#b75c3f"/>
  </g>
</svg>
