<svg xmlns="http://www.w3.org/2000/svg" width="21.157" height="22" viewBox="0 0 21.157 22">
  <g id="Layer_26" transform="translate(-2.536 -2)">
    <path id="Path_193" data-name="Path 193" d="M20.438,2H5.791A3.255,3.255,0,0,0,2.536,5.255V20.744A3.255,3.255,0,0,0,5.791,24H20.438a3.255,3.255,0,0,0,3.255-3.255V5.255A3.254,3.254,0,0,0,20.438,2ZM9.519,6.154h7.192a.707.707,0,0,1,0,1.414H9.519a.707.707,0,1,1,0-1.414ZM13.625,19.06H6.564a.707.707,0,1,1,0-1.414h7.061a.707.707,0,1,1,0,1.414Zm0-5.58H6.564a.707.707,0,1,1,0-1.414h7.061a.707.707,0,1,1,0,1.414Zm6.484,4.638L18.16,19.69a.706.706,0,0,1-1-.115l-.767-.977a.707.707,0,1,1,1.113-.874l.325.413,1.392-1.122a.708.708,0,0,1,.887,1.1Zm0-5.579L18.16,14.109a.706.706,0,0,1-1-.115l-.767-.977a.707.707,0,1,1,1.113-.874l.325.414,1.392-1.122a.708.708,0,0,1,.887,1.1Z" fill="#e9ebf1"/>
  </g>
</svg>
