<svg xmlns="http://www.w3.org/2000/svg" width="14.688" height="20.564" viewBox="0 0 14.688 20.564">
  <g id="_13-Unlock" data-name="13-Unlock" transform="translate(-6 -2)">
    <path id="Path_10" data-name="Path 10" d="M18.485,9.344H9.672V6.928a3.459,3.459,0,0,1,3.459-3.459h.426a3.459,3.459,0,0,1,3.459,3.459.734.734,0,0,0,1.469,0A4.935,4.935,0,0,0,13.557,2h-.426A4.935,4.935,0,0,0,8.2,6.928V9.344a2.2,2.2,0,0,0-2.2,2.2v6.83a4.194,4.194,0,0,0,4.186,4.186H16.5a4.194,4.194,0,0,0,4.186-4.186v-6.83A2.2,2.2,0,0,0,18.485,9.344Zm.734,9.033A2.717,2.717,0,0,1,16.5,21.095H10.186a2.717,2.717,0,0,1-2.717-2.717v-6.83a.734.734,0,0,1,.734-.734H18.485a.734.734,0,0,1,.734.734Zm-5.141-2.629v2.409a.734.734,0,1,1-1.469,0V15.748a1.469,1.469,0,1,1,1.469,0Z" fill="#a52d01"/>
  </g>
</svg>
