<svg id="user-2" xmlns="http://www.w3.org/2000/svg" width="16.561" height="19.85" viewBox="0 0 16.561 19.85">
  <path id="Path_8" data-name="Path 8" d="M91.812,9.562a4.626,4.626,0,0,0,3.38-1.4,4.626,4.626,0,0,0,1.4-3.38,4.627,4.627,0,0,0-1.4-3.38,4.78,4.78,0,0,0-6.761,0,4.626,4.626,0,0,0-1.4,3.38,4.626,4.626,0,0,0,1.4,3.38A4.628,4.628,0,0,0,91.812,9.562ZM89.255,2.223a3.616,3.616,0,0,1,5.115,0,3.456,3.456,0,0,1,1.06,2.558,3.456,3.456,0,0,1-1.06,2.558,3.616,3.616,0,0,1-5.115,0,3.456,3.456,0,0,1-1.06-2.558A3.456,3.456,0,0,1,89.255,2.223Zm0,0" transform="translate(-83.657)" fill="#a52d01"/>
  <path id="Path_9" data-name="Path 9" d="M16.52,252.992a11.808,11.808,0,0,0-.161-1.254,9.882,9.882,0,0,0-.308-1.261,6.229,6.229,0,0,0-.519-1.176,4.433,4.433,0,0,0-.782-1.019,3.447,3.447,0,0,0-1.123-.706,3.881,3.881,0,0,0-1.434-.259,1.455,1.455,0,0,0-.777.33c-.233.152-.505.328-.809.522a4.638,4.638,0,0,1-1.047.461,4.067,4.067,0,0,1-2.562,0,4.624,4.624,0,0,1-1.047-.461c-.3-.192-.574-.368-.81-.522a1.454,1.454,0,0,0-.777-.33,3.876,3.876,0,0,0-1.433.26,3.443,3.443,0,0,0-1.123.706,4.434,4.434,0,0,0-.781,1.019,6.241,6.241,0,0,0-.518,1.176A9.906,9.906,0,0,0,.2,251.737a11.728,11.728,0,0,0-.161,1.255c-.026.379-.04.774-.04,1.172a3.3,3.3,0,0,0,.979,2.494,3.524,3.524,0,0,0,2.523.92h9.558a3.524,3.524,0,0,0,2.522-.92,3.3,3.3,0,0,0,.979-2.494C16.56,253.764,16.547,253.37,16.52,252.992Zm-1.741,2.823a2.372,2.372,0,0,1-1.721.6H3.5a2.373,2.373,0,0,1-1.721-.6,2.152,2.152,0,0,1-.618-1.651c0-.372.012-.739.037-1.092a10.579,10.579,0,0,1,.145-1.13,8.736,8.736,0,0,1,.271-1.112,5.081,5.081,0,0,1,.422-.956,3.287,3.287,0,0,1,.574-.753,2.286,2.286,0,0,1,.747-.464,2.677,2.677,0,0,1,.916-.177c.041.022.113.063.231.14.239.156.515.334.819.528a5.763,5.763,0,0,0,1.315.587,5.229,5.229,0,0,0,3.278,0,5.77,5.77,0,0,0,1.315-.588c.312-.2.58-.372.819-.528.118-.076.19-.118.231-.14a2.678,2.678,0,0,1,.916.177,2.29,2.29,0,0,1,.747.464,3.278,3.278,0,0,1,.574.753,5.064,5.064,0,0,1,.422.956,8.716,8.716,0,0,1,.271,1.112,10.667,10.667,0,0,1,.145,1.13h0c.025.351.037.718.037,1.091A2.152,2.152,0,0,1,14.779,255.815Zm0,0" transform="translate(0 -237.728)" fill="#a52d01"/>
</svg>
